#include "Melodies.h"

int Loser_notes[5] = { NOTE_C4, NOTE_A3, NOTE_G3, NOTE_E3, NOTE_C3 };
int Loser_duration[5] = { 150, 150, 150, 150, 150 };
int Loser_delay[5] = { 100, 100, 100, 100, 100 };
Melody Loser(5, Loser_notes, Loser_duration, Loser_delay);

int JOJO_notes[511] = {
  NOTE_B4, 0, NOTE_B4, 0, NOTE_B4, NOTE_A4, 0, NOTE_B4, 0, NOTE_D5, 0, NOTE_B4, 0, NOTE_FS4, NOTE_A4, 0, NOTE_B4, 0, NOTE_B4, 0, NOTE_B4, NOTE_A4, 0, NOTE_B4, 0, NOTE_F5, 0, NOTE_E5, 0, NOTE_D5, NOTE_A4, 0, NOTE_B4, 0, NOTE_B4, 0, NOTE_B4, NOTE_A4, 0, NOTE_B4, 0, NOTE_D5, 0, NOTE_B4, 0, NOTE_FS4, NOTE_A4, 0, NOTE_B4, 0, NOTE_B4, 0, NOTE_B4, NOTE_A4, NOTE_B4, NOTE_D5, 0, NOTE_F5, 0, NOTE_E5, 0, NOTE_D5, NOTE_A4, 0, NOTE_B4, 0, NOTE_B4, 0, NOTE_B4, NOTE_A4, 0, NOTE_B4, 0, NOTE_D5, 0, NOTE_B4, 0, NOTE_FS4, NOTE_A4, 0, NOTE_B4, 0, NOTE_B4, 0, NOTE_B4, NOTE_A4, 0, NOTE_B4, 0, NOTE_F5, 0, NOTE_E5, 0, NOTE_D5, NOTE_A4, 0, NOTE_B4, 0, NOTE_B4, 0, NOTE_B4, NOTE_A4, 0, NOTE_B4, 0, NOTE_D5, 0, NOTE_B4, 0, NOTE_FS4, NOTE_A4, 0, NOTE_B4, 0, NOTE_B4, 0, NOTE_B4, 0, NOTE_A4, NOTE_B4, 0, 0, 0, 0, NOTE_B4, 0,
  NOTE_D5, 0, NOTE_E5, NOTE_F5, 0, NOTE_FS5, 0, NOTE_A5, 0, NOTE_FS5, 0, NOTE_A5, NOTE_AS5, 0, NOTE_B5, 0, NOTE_AS5, 0, NOTE_A5, NOTE_FS5, 0, NOTE_E5, 0, NOTE_D5, NOTE_GS4, 0, NOTE_A4, 0, NOTE_AS4, 0, NOTE_B4, 0, NOTE_D5, 0, NOTE_E5, NOTE_F5, 0, NOTE_FS5, 0, NOTE_A5, 0, NOTE_FS5, 0, NOTE_A5, NOTE_AS5, 0, NOTE_B5, 0, NOTE_A5, NOTE_B5, NOTE_A5, 0, NOTE_AS5, NOTE_B5, 0, NOTE_GS4, 0, NOTE_GS4, NOTE_A4, NOTE_A4, NOTE_AS4, 0, NOTE_B4, 0, NOTE_D5, 0, NOTE_E5, NOTE_F5, 0, NOTE_FS5, 0, NOTE_A5, 0, NOTE_FS5, 0, NOTE_A5, NOTE_AS5, 0, NOTE_B5, 0, NOTE_AS5, 0, NOTE_A5, NOTE_FS5, 0, NOTE_E5, 0, NOTE_D5, NOTE_GS4, 0, NOTE_A4, 0, NOTE_AS4, 0, NOTE_B4, 0, NOTE_D5, 0, NOTE_E5, NOTE_F5, 0, NOTE_FS5, 0, NOTE_A5, 0, NOTE_FS5, 0, NOTE_A5, NOTE_AS5, 0, NOTE_B5, 0, NOTE_A5, NOTE_B5, NOTE_A5, 0, NOTE_AS5, NOTE_B5, 0, NOTE_GS4, 0, NOTE_GS4, NOTE_A4, NOTE_A4, NOTE_AS4, 0,
  NOTE_D5, NOTE_DS5, NOTE_B4, 0, NOTE_A4, 0, 0, NOTE_B4, 0, 0, NOTE_B4, 0, 0, 0, NOTE_FS4, 0, NOTE_A4, 0, NOTE_B4, 0, NOTE_DS5, 0, 0, NOTE_A4, 0, 0, NOTE_B4, 0, 0, 0, 0, 0, NOTE_D5, NOTE_DS5, NOTE_B4, 0, NOTE_A4, 0, 0, NOTE_B4, 0, 0, NOTE_B4, 0, 0, NOTE_FS4, 0, 0, NOTE_DS5, 0, NOTE_D5, 0, NOTE_DS5, 0, 0, NOTE_A4, 0, NOTE_CS4, NOTE_E4, NOTE_FS4, NOTE_CS4, NOTE_FS4, NOTE_GS4, NOTE_B4, NOTE_D5, NOTE_DS5, NOTE_B4, 0, NOTE_A4, 0, 0, NOTE_B4, 0, 0, NOTE_B4, 0, 0, 0, NOTE_FS4, 0, NOTE_A4, 0, NOTE_B4, 0, NOTE_DS5, 0, 0, NOTE_A4, 0, 0, NOTE_B4, 0, 0, 0, 0, 0, NOTE_D5, NOTE_DS5, NOTE_B4, 0, NOTE_A4, NOTE_D5, 0, NOTE_FS5, NOTE_E5, NOTE_D5, NOTE_B4, 0, NOTE_A5, NOTE_GS5, 0, NOTE_FS5, NOTE_D5, NOTE_DS5, 0, NOTE_B4, NOTE_A4, NOTE_B4, 0, NOTE_A4, NOTE_B4, 0, NOTE_A4, NOTE_B4, 0, NOTE_A4, NOTE_B4, 0, NOTE_A4, NOTE_B4, NOTE_D5, 0,
  NOTE_FS5, 0, 0, 0, 0, 0, NOTE_D5, 0, 0, 0, 0, 0, 0, NOTE_D5, NOTE_E5, NOTE_F5, 0, 0, NOTE_E5, 0, 0, NOTE_D5, 0, NOTE_DS5, 0, 0, NOTE_D5, 0, 0, NOTE_E5, 0, NOTE_FS5, 0, 0, 0, 0, 0, NOTE_B5, 0, 0, 0, 0, 0, NOTE_B4, 0, NOTE_DS5, 0, NOTE_D5, 0, 0, NOTE_E5, 0, 0, NOTE_D5, 0, NOTE_DS5, 0, 0, NOTE_A5, 0, 0, NOTE_G5, 0, NOTE_FS5, 0, 0, 0, 0, 0, NOTE_D5, 0, 0, 0, 0, 0, 0, NOTE_D5, NOTE_E5, NOTE_F5, 0, 0, NOTE_E5, 0, 0, NOTE_D5, 0, NOTE_DS5, 0, 0, NOTE_D5, 0, 0, NOTE_E5, 0, NOTE_FS5, 0, 0, 0, 0, 0, NOTE_B5, 0, 0, 0, 0, 0, NOTE_FS5, 0, NOTE_AS5, 0, NOTE_B5, 0, 0, NOTE_G5, 0, 0, NOTE_FS5, 0, NOTE_F5, 0, 0, NOTE_B5, 0, 0, NOTE_FS5, 0, NOTE_FS5
};

int JOJO_duration = 100;

int JOJO_delay = JOJO_duration * 1.2;

Melody JOJO(511, JOJO_notes, JOJO_duration, JOJO_delay);

int start_notes[54] = {
  NOTE_C4, NOTE_G4, NOTE_E5, NOTE_C5, NOTE_C4, NOTE_G4, NOTE_E5, NOTE_C5,
  NOTE_FS4, REST, REST, NOTE_E4, NOTE_G4, NOTE_D5, NOTE_A4, NOTE_G4,
  NOTE_E4, NOTE_C4, NOTE_C4, NOTE_G4, NOTE_E5, NOTE_C5, NOTE_C5, NOTE_G4,
  NOTE_D5, NOTE_B4, REST, NOTE_G4, NOTE_C5, NOTE_AS4, NOTE_AS4, NOTE_F4,
  NOTE_FS4, NOTE_F4, NOTE_C4, NOTE_AS4, NOTE_G4, NOTE_DS4, NOTE_DS4, NOTE_C4,
  NOTE_AS4, REST, REST
};

int start_duration[54] = {
  340, 113, 227, 227, 227, 227, 227, 227,
  227, 227, 454, 909, 340, 113, 227, 227,
  227, 227, 227, 227, 227, 227, 227, 909,
  227, 227, 1818, 227, 227, 454, 454, 227,
  227, 227, 454, 454, 113, 113, 113, 227,
  227, 227, 454, 454, 113, 113, 113, 227,
  227, 227, 227, 227, 454, 909
};



Melody START(54, start_notes, start_duration);
